<svg width="251" height="151" viewBox="0 0 251 151" fill="none" xmlns="http://www.w3.org/2000/svg">
<rect width="251" height="151" fill="white"/>
<path d="M42.6477 81.5455V83.4205H34.2273V99H32.1136V81.5455H42.6477ZM49.2358 99.2727C47.9744 99.2727 46.8864 98.9943 45.9716 98.4375C45.0625 97.875 44.3608 97.0909 43.8665 96.0852C43.3778 95.0739 43.1335 93.8977 43.1335 92.5568C43.1335 91.2159 43.3778 90.0341 43.8665 89.0114C44.3608 87.983 45.0483 87.1818 45.929 86.608C46.8153 86.0284 47.8494 85.7386 49.0312 85.7386C49.7131 85.7386 50.3864 85.8523 51.0511 86.0795C51.7159 86.3068 52.321 86.6761 52.8665 87.1875C53.4119 87.6932 53.8466 88.3636 54.1705 89.1989C54.4943 90.0341 54.6562 91.0625 54.6562 92.2841V93.1364H44.5653V91.3977H52.6108C52.6108 90.6591 52.4631 90 52.1676 89.4205C51.8778 88.8409 51.4631 88.3835 50.9233 88.0483C50.3892 87.7131 49.7585 87.5455 49.0312 87.5455C48.2301 87.5455 47.5369 87.7443 46.9517 88.142C46.3722 88.5341 45.9261 89.0455 45.6136 89.6761C45.3011 90.3068 45.1449 90.983 45.1449 91.7045V92.8636C45.1449 93.8523 45.3153 94.6903 45.6562 95.3778C46.0028 96.0597 46.483 96.5795 47.0966 96.9375C47.7102 97.2898 48.4233 97.4659 49.2358 97.4659C49.7642 97.4659 50.2415 97.392 50.6676 97.2443C51.0994 97.0909 51.4716 96.8636 51.7841 96.5625C52.0966 96.2557 52.3381 95.875 52.5085 95.4205L54.4517 95.9659C54.2472 96.625 53.9034 97.2045 53.4205 97.7045C52.9375 98.1989 52.3409 98.5852 51.6307 98.8636C50.9205 99.1364 50.1222 99.2727 49.2358 99.2727ZM66.4773 91.5341V93.4091H59.25V91.5341H66.4773ZM59.7273 85.9091V99H57.7159V85.9091H59.7273ZM68.0114 85.9091V99H66V85.9091H68.0114ZM77.1733 99.2727C75.9119 99.2727 74.8239 98.9943 73.9091 98.4375C73 97.875 72.2983 97.0909 71.804 96.0852C71.3153 95.0739 71.071 93.8977 71.071 92.5568C71.071 91.2159 71.3153 90.0341 71.804 89.0114C72.2983 87.983 72.9858 87.1818 73.8665 86.608C74.7528 86.0284 75.7869 85.7386 76.9688 85.7386C77.6506 85.7386 78.3239 85.8523 78.9886 86.0795C79.6534 86.3068 80.2585 86.6761 80.804 87.1875C81.3494 87.6932 81.7841 88.3636 82.108 89.1989C82.4318 90.0341 82.5938 91.0625 82.5938 92.2841V93.1364H72.5028V91.3977H80.5483C80.5483 90.6591 80.4006 90 80.1051 89.4205C79.8153 88.8409 79.4006 88.3835 78.8608 88.0483C78.3267 87.7131 77.696 87.5455 76.9688 87.5455C76.1676 87.5455 75.4744 87.7443 74.8892 88.142C74.3097 88.5341 73.8636 89.0455 73.5511 89.6761C73.2386 90.3068 73.0824 90.983 73.0824 91.7045V92.8636C73.0824 93.8523 73.2528 94.6903 73.5938 95.3778C73.9403 96.0597 74.4205 96.5795 75.0341 96.9375C75.6477 97.2898 76.3608 97.4659 77.1733 97.4659C77.7017 97.4659 78.179 97.392 78.6051 97.2443C79.0369 97.0909 79.4091 96.8636 79.7216 96.5625C80.0341 96.2557 80.2756 95.875 80.446 95.4205L82.3892 95.9659C82.1847 96.625 81.8409 97.2045 81.358 97.7045C80.875 98.1989 80.2784 98.5852 79.5682 98.8636C78.858 99.1364 78.0597 99.2727 77.1733 99.2727ZM85.6534 103.909V85.9091H87.5966V87.9886H87.8352C87.983 87.7614 88.1875 87.4716 88.4489 87.1193C88.7159 86.7614 89.0966 86.4432 89.5909 86.1648C90.0909 85.8807 90.767 85.7386 91.6193 85.7386C92.7216 85.7386 93.6932 86.0142 94.5341 86.5653C95.375 87.1165 96.0313 87.8977 96.5028 88.9091C96.9744 89.9205 97.2102 91.1136 97.2102 92.4886C97.2102 93.875 96.9744 95.0767 96.5028 96.0938C96.0313 97.1051 95.3778 97.8892 94.5426 98.446C93.7074 98.9972 92.7443 99.2727 91.6534 99.2727C90.8125 99.2727 90.1392 99.1335 89.6335 98.8551C89.1278 98.571 88.7386 98.25 88.4659 97.892C88.1932 97.5284 87.983 97.2273 87.8352 96.9886H87.6648V103.909H85.6534ZM87.6307 92.4545C87.6307 93.4432 87.7756 94.3153 88.0653 95.071C88.3551 95.821 88.7784 96.4091 89.3352 96.8352C89.892 97.2557 90.5739 97.4659 91.3807 97.4659C92.2216 97.4659 92.9233 97.2443 93.4858 96.8011C94.054 96.3523 94.4801 95.75 94.7642 94.9943C95.054 94.233 95.1989 93.3864 95.1989 92.4545C95.1989 91.5341 95.0568 90.7045 94.7727 89.9659C94.4943 89.2216 94.071 88.6335 93.5028 88.2017C92.9403 87.7642 92.233 87.5455 91.3807 87.5455C90.5625 87.5455 89.875 87.7528 89.3182 88.1676C88.7614 88.5767 88.3409 89.1506 88.0568 89.8892C87.7727 90.6222 87.6307 91.4773 87.6307 92.4545ZM104.131 99.3068C103.301 99.3068 102.548 99.1506 101.872 98.8381C101.196 98.5199 100.659 98.0625 100.261 97.4659C99.8636 96.8636 99.6648 96.1364 99.6648 95.2841C99.6648 94.5341 99.8125 93.9261 100.108 93.4602C100.403 92.9886 100.798 92.6193 101.293 92.3523C101.787 92.0852 102.332 91.8864 102.929 91.7557C103.531 91.6193 104.136 91.5114 104.744 91.4318C105.54 91.3295 106.185 91.2528 106.679 91.2017C107.179 91.1449 107.543 91.0511 107.77 90.9205C108.003 90.7898 108.119 90.5625 108.119 90.2386V90.1705C108.119 89.3295 107.889 88.6761 107.429 88.2102C106.974 87.7443 106.284 87.5114 105.358 87.5114C104.398 87.5114 103.645 87.7216 103.099 88.142C102.554 88.5625 102.17 89.0114 101.949 89.4886L100.04 88.8068C100.381 88.0114 100.835 87.392 101.403 86.9489C101.977 86.5 102.602 86.1875 103.278 86.0114C103.96 85.8295 104.631 85.7386 105.29 85.7386C105.71 85.7386 106.193 85.7898 106.739 85.892C107.29 85.9886 107.821 86.1903 108.332 86.4972C108.849 86.804 109.278 87.267 109.619 87.8864C109.96 88.5057 110.131 89.3352 110.131 90.375V99H108.119V97.2273H108.017C107.881 97.5114 107.653 97.8153 107.335 98.1392C107.017 98.4631 106.594 98.7386 106.065 98.9659C105.537 99.1932 104.892 99.3068 104.131 99.3068ZM104.438 97.5C105.233 97.5 105.903 97.3438 106.449 97.0312C107 96.7188 107.415 96.3153 107.693 95.821C107.977 95.3267 108.119 94.8068 108.119 94.2614V92.4205C108.034 92.5227 107.847 92.6165 107.557 92.7017C107.273 92.7812 106.943 92.8523 106.568 92.9148C106.199 92.9716 105.838 93.0227 105.486 93.0682C105.139 93.108 104.858 93.142 104.642 93.1705C104.119 93.2386 103.631 93.3494 103.176 93.5028C102.727 93.6506 102.364 93.875 102.085 94.1761C101.813 94.4716 101.676 94.875 101.676 95.3864C101.676 96.0852 101.935 96.6136 102.452 96.9716C102.974 97.3239 103.636 97.5 104.438 97.5ZM112.021 87.7841V85.9091H122.657V87.7841H118.362V99H116.35V87.7841H112.021ZM130.229 99.2727C129.048 99.2727 128.011 98.9915 127.119 98.429C126.232 97.8665 125.539 97.0795 125.039 96.0682C124.545 95.0568 124.298 93.875 124.298 92.5227C124.298 91.1591 124.545 89.9687 125.039 88.9517C125.539 87.9347 126.232 87.1449 127.119 86.5824C128.011 86.0199 129.048 85.7386 130.229 85.7386C131.411 85.7386 132.445 86.0199 133.332 86.5824C134.224 87.1449 134.917 87.9347 135.411 88.9517C135.911 89.9687 136.161 91.1591 136.161 92.5227C136.161 93.875 135.911 95.0568 135.411 96.0682C134.917 97.0795 134.224 97.8665 133.332 98.429C132.445 98.9915 131.411 99.2727 130.229 99.2727ZM130.229 97.4659C131.127 97.4659 131.866 97.2358 132.445 96.7756C133.025 96.3153 133.454 95.7102 133.732 94.9602C134.011 94.2102 134.15 93.3977 134.15 92.5227C134.15 91.6477 134.011 90.8324 133.732 90.0767C133.454 89.321 133.025 88.7102 132.445 88.2443C131.866 87.7784 131.127 87.5455 130.229 87.5455C129.332 87.5455 128.593 87.7784 128.013 88.2443C127.434 88.7102 127.005 89.321 126.727 90.0767C126.448 90.8324 126.309 91.6477 126.309 92.5227C126.309 93.3977 126.448 94.2102 126.727 94.9602C127.005 95.7102 127.434 96.3153 128.013 96.7756C128.593 97.2358 129.332 97.4659 130.229 97.4659ZM139.232 103.909V85.9091H141.175V87.9886H141.413C141.561 87.7614 141.766 87.4716 142.027 87.1193C142.294 86.7614 142.675 86.4432 143.169 86.1648C143.669 85.8807 144.345 85.7386 145.197 85.7386C146.3 85.7386 147.271 86.0142 148.112 86.5653C148.953 87.1165 149.609 87.8977 150.081 88.9091C150.553 89.9205 150.788 91.1136 150.788 92.4886C150.788 93.875 150.553 95.0767 150.081 96.0938C149.609 97.1051 148.956 97.8892 148.121 98.446C147.286 98.9972 146.322 99.2727 145.232 99.2727C144.391 99.2727 143.717 99.1335 143.212 98.8551C142.706 98.571 142.317 98.25 142.044 97.892C141.771 97.5284 141.561 97.2273 141.413 96.9886H141.243V103.909H139.232ZM141.209 92.4545C141.209 93.4432 141.354 94.3153 141.643 95.071C141.933 95.821 142.357 96.4091 142.913 96.8352C143.47 97.2557 144.152 97.4659 144.959 97.4659C145.8 97.4659 146.501 97.2443 147.064 96.8011C147.632 96.3523 148.058 95.75 148.342 94.9943C148.632 94.233 148.777 93.3864 148.777 92.4545C148.777 91.5341 148.635 90.7045 148.351 89.9659C148.072 89.2216 147.649 88.6335 147.081 88.2017C146.518 87.7642 145.811 87.5455 144.959 87.5455C144.141 87.5455 143.453 87.7528 142.896 88.1676C142.339 88.5767 141.919 89.1506 141.635 89.8892C141.351 90.6222 141.209 91.4773 141.209 92.4545ZM162.618 96.0341L168.925 85.9091H171.243V99H169.232V88.875L162.959 99H160.607V85.9091H162.618V96.0341ZM182.086 96.2727L186.654 85.9091H188.563L182.904 99H181.268L175.711 85.9091H177.586L182.086 96.2727ZM176.938 85.9091V99H174.927V85.9091H176.938ZM187.234 99V85.9091H189.245V99H187.234ZM198.415 99.2727C197.154 99.2727 196.066 98.9943 195.151 98.4375C194.242 97.875 193.54 97.0909 193.046 96.0852C192.558 95.0739 192.313 93.8977 192.313 92.5568C192.313 91.2159 192.558 90.0341 193.046 89.0114C193.54 87.983 194.228 87.1818 195.109 86.608C195.995 86.0284 197.029 85.7386 198.211 85.7386C198.893 85.7386 199.566 85.8523 200.231 86.0795C200.896 86.3068 201.501 86.6761 202.046 87.1875C202.592 87.6932 203.026 88.3636 203.35 89.1989C203.674 90.0341 203.836 91.0625 203.836 92.2841V93.1364H193.745V91.3977H201.79C201.79 90.6591 201.643 90 201.347 89.4205C201.058 88.8409 200.643 88.3835 200.103 88.0483C199.569 87.7131 198.938 87.5455 198.211 87.5455C197.41 87.5455 196.717 87.7443 196.131 88.142C195.552 88.5341 195.106 89.0455 194.793 89.6761C194.481 90.3068 194.325 90.983 194.325 91.7045V92.8636C194.325 93.8523 194.495 94.6903 194.836 95.3778C195.183 96.0597 195.663 96.5795 196.276 96.9375C196.89 97.2898 197.603 97.4659 198.415 97.4659C198.944 97.4659 199.421 97.392 199.847 97.2443C200.279 97.0909 200.651 96.8636 200.964 96.5625C201.276 96.2557 201.518 95.875 201.688 95.4205L203.631 95.9659C203.427 96.625 203.083 97.2045 202.6 97.7045C202.117 98.1989 201.521 98.5852 200.81 98.8636C200.1 99.1364 199.302 99.2727 198.415 99.2727ZM215.657 91.5341V93.4091H208.43V91.5341H215.657ZM208.907 85.9091V99H206.896V85.9091H208.907ZM217.191 85.9091V99H215.18V85.9091H217.191Z" fill="black"/>
<line x1="32" y1="75.5" x2="216" y2="75.5" stroke="black"/>
</svg>
